<?xml version="1.0" encoding="utf-8"?>
<!-- Generator: Adobe Illustrator 16.0.0, SVG Export Plug-In . SVG Version: 6.00 Build 0)  -->
<!DOCTYPE svg PUBLIC "-//W3C//DTD SVG 1.1//EN" "http://www.w3.org/Graphics/SVG/1.1/DTD/svg11.dtd">
<svg version="1.1" id="Capa_1" xmlns="http://www.w3.org/2000/svg" xmlns:xlink="http://www.w3.org/1999/xlink" x="0px" y="0px"
	 width="300px" height="300px" viewBox="0 0 300 300" enable-background="new 0 0 300 300" xml:space="preserve">
<title>Running man</title>
<g>
	<title>Layer 1</title>
	<g id="Layer_1">
		<g id="svg_1">
			<g id="surface0">
				<path id="svg_2" fill="#0096D9" stroke="#000000" stroke-width="0.1" stroke-miterlimit="10" d="M108.418,50.727
					c10.115-4.038,21.298-1.269,30.866,2.97c10.676,5.017,21.583,12.316,25.963,23.775c1.965,4.676,0.675,10.132-2.701,13.797
					c-2.656,2.269-6.434,1.636-9.617,1.315c-7.225-1.551-11.648-7.978-17.263-12.188c-4.867-4.284-10.048-8.922-16.636-10.107
					c-5.877-0.971-10.982,2.918-14.749,6.952c-5.669,6.993-9.25,15.397-12.042,23.882c-1.814,7.4-5.675,14.461-5.209,22.271
					c-0.553-7.204-2.607-14.216-2.805-21.455c-0.368-9.334,0.816-18.72,3.16-27.745C91.685,64.522,98.329,54.949,108.418,50.727z"/>
				<path id="svg_3" fill="#0096D9" d="M108.418,50.727c10.115-4.038,21.298-1.269,30.866,2.97
					c10.676,5.017,21.583,12.316,25.963,23.775c1.965,4.676,0.675,10.132-2.701,13.797c-2.656,2.269-6.434,1.636-9.617,1.315
					c-7.225-1.551-11.648-7.978-17.263-12.188c-4.867-4.284-10.048-8.922-16.636-10.107c-5.877-0.971-10.982,2.918-14.749,6.952
					c-5.669,6.993-9.25,15.397-12.042,23.882c-1.814,7.4-5.675,14.461-5.209,22.271c-0.553-7.204-2.607-14.216-2.805-21.455
					c-0.368-9.334,0.816-18.72,3.16-27.745C91.685,64.522,98.329,54.949,108.418,50.727z"/>
				<path id="svg_4" fill="#0096D9" stroke="#000000" stroke-width="0.1" stroke-miterlimit="10" d="M200.642,56.913
					c7.324-0.85,15.021,2.023,19.937,7.537c3.334,4.104,5.572,9.274,5.537,14.615c-0.646,6.494-3.914,12.911-9.367,16.643
					c-6.428,4.556-15.215,5.505-22.448,2.347c-10.746-4.083-17.004-17.916-11.481-28.365
					C185.927,62.582,193.092,57.957,200.642,56.913z"/>
				<path id="svg_5" fill="#0096D9" d="M200.642,56.913c7.324-0.85,15.021,2.023,19.937,7.537c3.334,4.104,5.572,9.274,5.537,14.615
					c-0.646,6.494-3.914,12.911-9.367,16.643c-6.428,4.556-15.215,5.505-22.448,2.347c-10.746-4.083-17.004-17.916-11.481-28.365
					C185.927,62.582,193.092,57.957,200.642,56.913z"/>
				<path id="svg_6" fill="#0096D9" stroke="#000000" stroke-width="0.1" stroke-miterlimit="10" d="M276.879,94.662
					c0.433-0.024,0.871-0.035,1.313-0.027c-0.184,3.852,0.82,7.701,0.185,11.538c-1.018,6.596-3.673,12.791-6.55,18.764
					c-6.32,14.098-18.271,25.74-32.762,31.219c-6.651,2.346-14.544,2.166-20.538-1.84c-9.693-6.328-17.317-15.982-20.651-27.125
					c-2.111-6.018-2.185-13.245,1.445-18.699c1.814-2.39,4.266-5.059,7.545-4.88c3.388,0.313,6.416,2.348,8.462,5
					c4.816,6.323,5.824,14.547,9.796,21.298c3.322,4.354,8.693,9.526,14.633,6.979c7.157-3.026,13.18-8.173,19-13.22
					c7.358-6.328,12.479-14.775,16.567-23.473C276.144,98.451,276.717,96.591,276.879,94.662z"/>
				<path id="svg_7" fill="#0096D9" d="M276.879,94.662c0.433-0.024,0.871-0.035,1.313-0.027c-0.184,3.852,0.82,7.701,0.185,11.538
					c-1.018,6.596-3.673,12.791-6.55,18.764c-6.32,14.098-18.271,25.74-32.762,31.219c-6.651,2.346-14.544,2.166-20.538-1.84
					c-9.693-6.328-17.317-15.982-20.651-27.125c-2.111-6.018-2.185-13.245,1.445-18.699c1.814-2.39,4.266-5.059,7.545-4.88
					c3.388,0.313,6.416,2.348,8.462,5c4.816,6.323,5.824,14.547,9.796,21.298c3.322,4.354,8.693,9.526,14.633,6.979
					c7.157-3.026,13.18-8.173,19-13.22c7.358-6.328,12.479-14.775,16.567-23.473C276.144,98.451,276.717,96.591,276.879,94.662z"/>
				<path id="svg_8" fill="#0096D9" stroke="#000000" stroke-width="0.1" stroke-miterlimit="10" d="M98.077,135.092
					c4.257-3.605,10.544-3.255,15.495-1.452c4.974,2.115,10.214,3.749,14.755,6.757c7.051,4.518,13.789,9.584,19.816,15.404
					c6.812,5.506,13.137,11.648,18.557,18.54c4,4.705,8.176,10.202,7.86,16.718c-2.955,9.494-11.09,16.436-19.553,21.082
					c-11.224,5.707-23.743,7.971-35.739,11.473c-5.188,1.675-10.634,2.285-16.028,2.865c-6.109,0.33-12.251,1.59-18.356,0.51
					c3.912-2.844,8.648-4.108,12.948-6.215c12.347-5.33,23.968-12.164,35.998-18.152c5.096-2.467,10.087-5.611,13.001-10.635
					c-0.156-1.104-0.309-2.204-0.455-3.303c-3.425-3.467-7.653-5.944-12.011-8.045c-5.085,4.203-10.947,7.4-15.632,12.092
					c-12.854,9.568-27.063,17.069-40.752,25.347c-18.428,10.356-35.861,22.431-54.64,32.177c-1.094,0.393-2.215,0.697-3.362,0.916
					c7.211-7.857,15.608-14.544,22.708-22.509c10.246-10.732,20.492-21.47,31.183-31.765c11.29-10.871,22.263-22.062,32.726-33.732
					c-4.413-4.08-10.111-7.839-11.452-14.096C93.869,144.336,94.619,138.746,98.077,135.092z"/>
				<path id="svg_9" fill="#0096D9" d="M98.077,135.092c4.257-3.605,10.544-3.255,15.495-1.452
					c4.974,2.115,10.214,3.749,14.755,6.757c7.051,4.518,13.789,9.584,19.816,15.404c6.812,5.506,13.137,11.648,18.557,18.54
					c4,4.705,8.176,10.202,7.86,16.718c-2.955,9.494-11.09,16.436-19.553,21.082c-11.224,5.707-23.743,7.971-35.739,11.473
					c-5.188,1.675-10.634,2.285-16.028,2.865c-6.109,0.33-12.251,1.59-18.356,0.51c3.912-2.844,8.648-4.108,12.948-6.215
					c12.347-5.33,23.968-12.164,35.998-18.152c5.096-2.467,10.087-5.611,13.001-10.635c-0.156-1.104-0.309-2.204-0.455-3.303
					c-3.425-3.467-7.653-5.944-12.011-8.045c-5.085,4.203-10.947,7.4-15.632,12.092c-12.854,9.568-27.063,17.069-40.752,25.347
					c-18.428,10.356-35.861,22.431-54.64,32.177c-1.094,0.393-2.215,0.697-3.362,0.916c7.211-7.857,15.608-14.544,22.708-22.509
					c10.246-10.732,20.492-21.47,31.183-31.765c11.29-10.871,22.263-22.062,32.726-33.732c-4.413-4.08-10.111-7.839-11.452-14.096
					C93.869,144.336,94.619,138.746,98.077,135.092z"/>
			</g>
		</g>
	</g>
</g>
</svg>
